<svg id="Layer_1" data-name="Layer 1" xmlns="http://www.w3.org/2000/svg" viewBox="0 0 936.72 591.12"><defs><style>.cls-1{fill:#fff;}.cls-1,.cls-3,.cls-4{stroke:#000;stroke-miterlimit:10;}.cls-1,.cls-4{stroke-width:6px;}.cls-2{font-size:52.77px;}.cls-15,.cls-2,.cls-5{font-family:MyriadPro-Regular, Myriad Pro;}.cls-3,.cls-4{fill:none;}.cls-3{stroke-width:3px;}.cls-5{font-size:20px;}.cls-6{letter-spacing:-0.02em;}.cls-7{letter-spacing:-0.01em;}.cls-8{letter-spacing:-0.01em;}.cls-9{letter-spacing:0em;}.cls-10{letter-spacing:0.01em;}.cls-11{letter-spacing:0em;}.cls-12{letter-spacing:-0.03em;}.cls-13{letter-spacing:-0.01em;}.cls-14{letter-spacing:0em;}.cls-15{font-size:19.9px;}.cls-16{letter-spacing:0em;}.cls-17{letter-spacing:-0.01em;}.cls-18{letter-spacing:0em;}.cls-19{letter-spacing:0em;}.cls-20{letter-spacing:-0.01em;}.cls-21{letter-spacing:0em;}.cls-22{letter-spacing:0.01em;}.cls-23{letter-spacing:0.03em;}</style></defs><title>Artboard 2</title><rect class="cls-1" x="329.71" y="104.5" width="258.34" height="101.17"/><text class="cls-2" transform="translate(389.3 170.61)">HOME</text><line class="cls-3" x1="833.71" y1="382.57" x2="833.71" y2="265.54"/><line class="cls-3" x1="84.04" y1="266.08" x2="833.71" y2="266.08"/><line class="cls-3" x1="84.04" y1="382.57" x2="84.04" y2="266.62"/><line class="cls-3" x1="458.88" y1="265.54" x2="458.88" y2="205.13"/><line class="cls-3" x1="458.88" y1="382.57" x2="458.88" y2="266.62"/><line class="cls-3" x1="271.46" y1="325.76" x2="271.46" y2="265.36"/><line class="cls-3" x1="632.07" y1="325.47" x2="632.07" y2="265.07"/><rect class="cls-4" x="7.46" y="382.29" width="153.17" height="50.7"/><rect class="cls-4" x="194.88" y="326.48" width="153.17" height="50.7"/><rect class="cls-4" x="382.29" y="382.29" width="153.17" height="50.7"/><rect class="cls-4" x="555.48" y="326.48" width="153.17" height="50.7"/><rect class="cls-4" x="757.12" y="382.29" width="153.17" height="50.7"/><text class="cls-5" transform="translate(49.81 413.99)"> <tspan class="cls-6" x="4.24" y="0">P</tspan><tspan class="cls-7" x="14.56" y="0">r</tspan><tspan x="20.9" y="0">es</tspan><tspan class="cls-8" x="38.84" y="0">t</tspan><tspan class="cls-9" x="45.34" y="0">on</tspan></text><text class="cls-5" transform="translate(216.66 355.83)"><tspan class="cls-10">S</tspan><tspan x="9.98" y="0">oda Sp</tspan><tspan class="cls-11" x="67.36" y="0">r</tspan><tspan x="73.98" y="0">ings</tspan></text><text class="cls-5" transform="translate(414.49 412.64)"><tspan class="cls-12">F</tspan><tspan x="9.22" y="0">ish H</tspan><tspan class="cls-13" x="50.2" y="0">a</tspan><tspan class="cls-7" x="59.68" y="0">v</tspan><tspan class="cls-14" x="69.1" y="0">en</tspan></text><text class="cls-15" transform="translate(578.24 356.45)"><tspan class="cls-16">S</tspan><tspan class="cls-17" x="9.75" y="0">t</tspan><tspan x="16.22" y="0">o</tspan><tspan class="cls-18" x="27.15" y="0">r</tspan><tspan class="cls-19" x="33.73" y="0">m </tspan><tspan class="cls-20" x="54.55" y="0">C</tspan><tspan class="cls-19" x="65.88" y="0">e</tspan><tspan class="cls-21" x="75.85" y="0">n</tspan><tspan class="cls-17" x="86.81" y="0">t</tspan><tspan x="93.28" y="0">er</tspan></text><text class="cls-5" transform="translate(805.41 412.52)"><tspan class="cls-22">G</tspan><tspan class="cls-14" x="13.08" y="0">alle</tspan><tspan class="cls-23" x="42.18" y="0">r</tspan><tspan x="49.22" y="0">y</tspan></text></svg>